<svg width="260" height="100" xmlns="http://www.w3.org/2000/svg" xmlns:xlink="http://www.w3.org/1999/xlink" xml:space="preserve" overflow="hidden"><defs><clipPath id="clip0"><rect x="0" y="0" width="260" height="100"/></clipPath></defs><g clip-path="url(#clip0)"><path d="M133.321 30.7597C135.872 25.5563 141.199 22.294 146.993 22.3862 149.206 22.3807 151.39 22.8801 153.381 23.8463 155.288 24.7199 156.95 26.0508 158.22 27.7209L158.22 11.4124 167.022 11.4124 167.022 57.2991 158.22 57.2991 158.22 52.2121C157.097 53.9511 155.534 55.3626 153.69 56.3034 151.6 57.3697 149.278 57.9015 146.932 57.8512 144.128 57.8778 141.375 57.1027 138.997 55.6172 136.556 54.088 134.591 51.9081 133.321 49.3229 131.897 46.4215 131.19 43.221 131.258 39.9897 131.194 36.7919 131.901 33.6257 133.321 30.7597ZM157.054 34.6963C156.286 33.2472 155.126 32.0438 153.706 31.2241 152.332 30.4259 150.77 30.0075 149.181 30.0116 145.923 29.9851 142.921 31.7755 141.396 34.655 140.516 36.3018 140.078 38.1489 140.126 40.0155 140.08 41.8864 140.506 43.7388 141.365 45.4018 142.138 46.8729 143.297 48.1054 144.718 48.9669 146.054 49.7794 147.587 50.2078 149.15 50.2051 150.742 50.2185 152.31 49.8071 153.69 49.0133 155.111 48.1936 156.271 46.9902 157.039 45.5411 157.906 43.8663 158.333 41.9988 158.282 40.1135 158.332 38.2317 157.904 36.3679 157.039 34.6963Z" fill="#0075C1" transform="matrix(1 0 0 1.00199 -343.866 0)"/><path d="M176.107 17.3971C175.11 16.4641 174.557 15.151 174.585 13.7856 174.559 12.4207 175.112 11.1084 176.107 10.1741 178.279 8.23353 181.561 8.23353 183.733 10.1741 184.727 11.1095 185.279 12.421 185.255 13.7856 185.281 15.1505 184.728 16.4625 183.733 17.3971 181.561 19.3377 178.279 19.3377 176.107 17.3971ZM184.187 22.9434 184.187 57.2991 175.519 57.2991 175.519 22.9434Z" fill="#0075C1" transform="matrix(1 0 0 1.00199 -343.866 0)"/><path d="M212.971 23.9082C214.803 24.8257 216.379 26.1836 217.557 27.8602L217.557 22.9589 226.302 22.9589 226.302 57.5622C226.353 60.5164 225.693 63.4395 224.378 66.0854 223.089 68.5968 221.083 70.669 218.615 72.0392 216.049 73.5045 212.953 74.2388 209.328 74.2422 204.447 74.2422 200.447 73.1055 197.328 70.832 194.275 68.6725 192.335 65.2722 192.029 61.5452L200.645 61.5452C201.108 63.128 202.163 64.4714 203.591 65.296 205.254 66.2656 207.156 66.7483 209.08 66.689 211.598 66.689 213.643 65.9358 215.215 64.4293 216.787 62.9228 217.573 60.6389 217.573 57.5777L217.573 52.2121C216.372 53.9002 214.79 55.2809 212.955 56.2415 210.892 57.3382 208.584 57.8938 206.248 57.8563 203.443 57.8822 200.688 57.1072 198.308 55.6223 195.869 54.091 193.904 51.9117 192.633 49.328 191.206 46.4275 190.498 43.2264 190.569 39.9949 190.502 36.795 191.21 33.6265 192.633 30.7597 193.896 28.209 195.85 26.0639 198.272 24.5686 200.673 23.1131 203.435 22.3605 206.243 22.3965 208.575 22.3477 210.884 22.8665 212.971 23.9082ZM216.319 34.6963C215.549 33.2487 214.389 32.0458 212.971 31.2241 211.593 30.4248 210.028 30.0064 208.436 30.0116 205.179 29.987 202.18 31.7771 200.655 34.655 199.775 36.3018 199.338 38.1489 199.386 40.0155 199.351 41.8895 199.789 43.7421 200.66 45.4018 201.425 46.8897 202.583 48.139 204.009 49.0133 205.345 49.8246 206.878 50.2529 208.441 50.2515 210.034 50.2483 211.597 49.8209 212.971 49.0133 214.389 48.1916 215.549 46.9887 216.319 45.5411 217.184 43.8658 217.61 41.9983 217.557 40.1135 217.609 38.2322 217.183 36.3684 216.319 34.6963Z" fill="#0075C1" transform="matrix(1 0 0 1.00199 -343.866 0)"/><path d="M235.383 17.3971C234.389 16.462 233.838 15.1498 233.866 13.7856 233.839 12.4217 234.39 11.11 235.383 10.1741 237.557 8.23515 240.839 8.23515 243.013 10.1741 244.006 11.11 244.557 12.4217 244.53 13.7856 244.558 15.1498 244.007 16.462 243.013 17.3971 240.839 19.3361 237.557 19.3361 235.383 17.3971ZM243.477 22.9434 243.477 57.2991 234.794 57.2991 234.794 22.9434Z" fill="#0075C1" transform="matrix(1 0 0 1.00199 -343.866 0)"/><path d="M262.139 30.0735 262.139 46.6916C262.139 47.8525 262.422 48.6883 262.98 49.2042 263.537 49.7201 264.476 49.9781 265.802 49.9781L269.831 49.9781 269.831 57.2991 264.373 57.2991C257.057 57.2991 253.399 53.7426 253.399 46.6297L253.399 30.0735 249.307 30.0735 249.307 22.9434 253.399 22.9434 253.399 14.446 262.139 14.446 262.139 22.9434 269.831 22.9434 269.831 30.0735Z" fill="#0075C1" transform="matrix(1 0 0 1.00199 -343.866 0)"/><path d="M275.935 30.7597C277.2 28.2086 279.155 26.0636 281.579 24.5686 283.979 23.1138 286.739 22.3612 289.545 22.3965 291.875 22.3454 294.18 22.8775 296.252 23.9443 298.073 24.8815 299.66 26.2163 300.895 27.8499L300.895 22.9485 309.635 22.9485 309.635 57.3043 300.895 57.3043 300.895 52.2791C299.691 53.9656 298.098 55.3371 296.252 56.2776 294.155 57.3658 291.819 57.9104 289.457 57.8615 286.663 57.8894 283.919 57.114 281.553 55.6275 279.129 54.0882 277.176 51.9103 275.909 49.3332 274.485 46.4318 273.777 43.2313 273.845 40 273.787 36.7966 274.504 33.6266 275.935 30.7597ZM299.667 34.6963C298.898 33.2487 297.738 32.0458 296.319 31.2241 294.943 30.4257 293.38 30.0073 291.789 30.0116 288.533 29.987 285.533 31.7771 284.009 34.655 283.129 36.2947 282.688 38.1343 282.729 39.9949 282.69 41.8754 283.126 43.7354 283.999 45.4018 284.768 46.8941 285.936 48.1442 287.373 49.0133 288.708 49.8251 290.242 50.2534 291.805 50.2515 293.389 50.2437 294.943 49.8165 296.309 49.0133 297.727 48.1916 298.887 46.9887 299.657 45.5411 300.522 43.8658 300.948 41.9983 300.895 40.1135 300.947 38.2322 300.521 36.3684 299.657 34.6963Z" fill="#0075C1" transform="matrix(1 0 0 1.00199 -343.866 0)"/><path d="M326.816 11.4124 326.816 57.2991 318.132 57.2991 318.132 11.4124Z" fill="#0075C1" transform="matrix(1 0 0 1.00199 -343.866 0)"/><path d="M381.814 42.7241 356.698 42.7241C356.905 45.2075 357.764 47.1508 359.278 48.5541 360.814 49.9628 362.838 50.7194 364.922 50.6643 368.148 50.6643 370.443 49.2781 371.805 46.5059L381.169 46.5059C380.215 49.7784 378.221 52.6509 375.488 54.6885 372.678 56.8176 369.227 57.8821 365.134 57.8821 362.026 57.933 358.959 57.1737 356.234 55.6791 353.631 54.2353 351.499 52.0713 350.094 49.4467 348.587 46.5871 347.831 43.3917 347.896 40.16 347.825 36.9082 348.57 33.6905 350.063 30.801 351.442 28.1885 353.554 26.0364 356.141 24.6098 361.71 21.7355 368.321 21.7124 373.91 24.5479 376.453 25.9148 378.542 27.9949 379.92 30.5327 381.386 33.2646 382.123 36.3278 382.061 39.4273 382.068 40.5311 381.985 41.6337 381.814 42.7241ZM373.069 36.8941C373.106 34.8361 372.22 32.8695 370.654 31.5336 369.043 30.1774 366.991 29.4595 364.886 29.5163 362.895 29.4579 360.955 30.1567 359.458 31.4717 357.931 32.8919 356.972 34.8191 356.76 36.8941Z" fill="#0075C1" transform="matrix(1 0 0 1.00199 -343.866 0)"/><path d="M407.357 57.2991 400.289 46.6297 394.026 57.2991 384.739 57.2991 395.96 40.0568 384.61 22.9434 394.413 22.9434 401.393 33.5354 407.718 22.9331 417.005 22.9331 405.748 40.0568 417.155 57.2991Z" fill="#0075C1" transform="matrix(1 0 0 1.00199 -343.866 0)"/><path d="M435.171 23.9701C437.239 22.8887 439.545 22.3441 441.878 22.3862 444.7 22.3422 447.477 23.095 449.891 24.5582 452.312 26.0552 454.267 28.1997 455.535 30.7494 456.966 33.6317 457.674 36.819 457.598 40.0361 457.667 43.2674 456.959 46.468 455.535 49.3693 454.262 51.9313 452.309 54.0943 449.891 55.6224 447.504 57.1146 444.739 57.89 441.925 57.8563 439.608 57.9053 437.316 57.3732 435.259 56.3085 433.434 55.3595 431.836 54.0272 430.574 52.403L430.574 73.6696 421.87 73.6696 421.87 22.9434 430.548 22.9434 430.548 27.9066C431.761 26.252 433.344 24.9039 435.171 23.9701ZM447.445 34.6343C446.671 33.1981 445.511 32.0064 444.097 31.1931 442.728 30.4115 441.179 30.004 439.603 30.0116 438.043 30.0097 436.512 30.4286 435.171 31.224 433.757 32.0617 432.601 33.2741 431.833 34.7272 430.951 36.3847 430.512 38.2418 430.559 40.1187 430.512 41.9973 430.951 43.8562 431.833 45.5153 432.602 46.9665 433.757 48.177 435.171 49.0133 437.929 50.6308 441.349 50.6189 444.097 48.9823 445.511 48.1284 446.669 46.9071 447.445 45.4482 448.33 43.7677 448.768 41.8882 448.719 39.9897 448.765 38.1244 448.326 36.2791 447.445 34.6343Z" fill="#0075C1" transform="matrix(1 0 0 1.00199 -343.866 0)"/><path d="M472.591 11.4124 472.591 57.2991 463.908 57.2991 463.908 11.4124Z" fill="#0075C1" transform="matrix(1 0 0 1.00199 -343.866 0)"/><path d="M487.471 55.6533C484.846 54.2071 482.685 52.046 481.238 49.4209 479.692 46.5737 478.914 43.3733 478.979 40.1342 478.915 36.8874 479.716 33.6822 481.3 30.8474 482.79 28.2061 484.992 26.0373 487.657 24.5892 493.292 21.6519 500.007 21.6519 505.642 24.5892 508.301 26.0317 510.504 28.1909 511.998 30.8216 513.582 33.6564 514.384 36.8616 514.32 40.1084 514.384 43.363 513.56 46.5737 511.936 49.3951 510.401 52.0263 508.169 54.1829 505.487 55.6275 502.693 57.1181 499.568 57.876 496.402 57.8305 493.287 57.8873 490.21 57.1373 487.471 55.6533ZM500.833 49.1423C502.253 48.346 503.407 47.1491 504.151 45.701 505.024 43.9731 505.452 42.054 505.394 40.1187 505.394 36.858 504.534 34.3471 502.815 32.5861 501.179 30.8637 498.895 29.9072 496.52 29.9497 494.161 29.8975 491.893 30.857 490.288 32.5861 488.616 34.3437 487.779 36.8546 487.775 40.1187 487.772 43.3828 488.589 45.8954 490.226 47.6564 491.808 49.3935 494.069 50.3543 496.417 50.2876 497.963 50.29 499.483 49.8956 500.833 49.1423Z" fill="#0075C1" transform="matrix(1 0 0 1.00199 -343.866 0)"/><path d="M533.76 24.001C535.648 22.941 537.786 22.4066 539.951 22.4533L539.951 31.5646 537.655 31.5646C534.928 31.5646 532.864 32.2043 531.464 33.4838 530.064 34.7633 529.376 36.999 529.4 40.1909L529.4 57.3094 520.717 57.3094 520.717 22.9434 529.4 22.9434 529.4 28.2781C530.465 26.5039 531.966 25.0315 533.76 24.001Z" fill="#0075C1" transform="matrix(1 0 0 1.00199 -343.866 0)"/><path d="M577.444 42.7241 552.328 42.7241C552.535 45.2075 553.395 47.1508 554.908 48.5541 556.445 49.9628 558.468 50.7194 560.552 50.6643 563.778 50.6643 566.073 49.2781 567.435 46.5059L576.809 46.5059C575.857 49.7777 573.865 52.6501 571.134 54.6885 568.324 56.8176 564.872 57.8821 560.779 57.8821 557.672 57.933 554.604 57.1737 551.879 55.6791 549.276 54.2353 547.145 52.0713 545.74 49.4467 544.233 46.5871 543.477 43.3917 543.542 40.16 543.471 36.9082 544.216 33.6905 545.709 30.801 547.087 28.1885 549.2 26.0364 551.787 24.6098 557.354 21.7355 563.963 21.7125 569.55 24.5479 572.096 25.913 574.188 27.9934 575.566 30.5327 577.031 33.2646 577.769 36.3278 577.707 39.4273 577.708 40.5316 577.62 41.6341 577.444 42.7241ZM568.673 36.8941C568.71 34.835 567.822 32.8676 566.253 31.5336 564.645 30.1764 562.594 29.4584 560.49 29.5163 558.508 29.4635 556.578 30.1619 555.089 31.4717 553.561 32.8919 552.602 34.8191 552.39 36.8941Z" fill="#0075C1" transform="matrix(1 0 0 1.00199 -343.866 0)"/><path d="M597.07 24.001C598.958 22.9408 601.096 22.4063 603.261 22.4533L603.261 31.5646 600.97 31.5646C598.243 31.5646 596.179 32.2043 594.779 33.4838 593.379 34.7633 592.691 36.999 592.715 40.1909L592.715 57.3094 584.032 57.3094 584.032 22.9434 592.71 22.9434 592.71 28.2781C593.777 26.5055 595.277 25.0336 597.07 24.001Z" fill="#0075C1" transform="matrix(1 0 0 1.00199 -343.866 0)"/></g></svg>