<svg width="219" height="100" xmlns="http://www.w3.org/2000/svg" xmlns:xlink="http://www.w3.org/1999/xlink" xml:space="preserve" overflow="hidden"><defs><clipPath id="clip0"><rect x="0" y="0" width="219" height="100"/></clipPath></defs><g clip-path="url(#clip0)"><path d="M133.183 30.7279C135.732 25.5299 141.053 22.271 146.841 22.363 149.052 22.3576 151.234 22.8564 153.222 23.8216 155.127 24.6944 156.788 26.0239 158.056 27.6922L158.056 11.4006 166.849 11.4006 166.849 57.2399 158.056 57.2399 158.056 52.1581C156.935 53.8954 155.373 55.3053 153.531 56.2452 151.443 57.3104 149.123 57.8416 146.78 57.7913 143.979 57.8179 141.228 57.0436 138.853 55.5597 136.415 54.032 134.451 51.8544 133.183 49.2719 131.761 46.3734 131.054 43.1763 131.122 39.9483 131.058 36.7538 131.765 33.591 133.183 30.7279ZM156.892 34.6604C156.125 33.2128 154.966 32.0106 153.547 31.1918 152.174 30.3944 150.614 29.9764 149.027 29.9806 145.772 29.9541 142.773 31.7426 141.249 34.6191 140.37 36.2642 139.933 38.1095 139.982 39.9741 139.936 41.8431 140.361 43.6936 141.219 45.3548 141.991 46.8244 143.149 48.0556 144.569 48.9162 145.902 49.7279 147.434 50.1559 148.996 50.1532 150.587 50.1666 152.152 49.7556 153.531 48.9626 154.95 48.1437 156.109 46.9416 156.876 45.494 157.742 43.8209 158.17 41.9553 158.118 40.072 158.168 38.1922 157.741 36.3303 156.876 34.6604Z" fill="#0075C1" transform="matrix(1 0 0 1.00303 -121.847 0)"/><path d="M175.925 17.3792C174.929 16.447 174.376 15.1353 174.405 13.7714 174.378 12.4078 174.931 11.0969 175.925 10.1636 178.094 8.22502 181.374 8.22502 183.543 10.1636 184.536 11.098 185.088 12.4082 185.063 13.7714 185.089 15.1348 184.537 16.4455 183.543 17.3792 181.374 19.3177 178.094 19.3177 175.925 17.3792ZM183.996 22.9197 183.996 57.2399 175.338 57.2399 175.338 22.9197Z" fill="#0075C1" transform="matrix(1 0 0 1.00303 -121.847 0)"/><path d="M212.75 23.8834C214.581 24.8 216.155 26.1565 217.332 27.8314L217.332 22.9351 226.068 22.9351 226.068 57.5027C226.119 60.4538 225.459 63.3739 224.146 66.0171 222.858 68.5259 220.854 70.5959 218.389 71.9647 215.825 73.4285 212.733 74.162 209.112 74.1655 204.236 74.1655 200.24 73.0299 197.123 70.7587 194.074 68.6015 192.136 65.2047 191.83 61.4816L200.437 61.4816C200.9 63.0627 201.954 64.4047 203.38 65.2285 205.042 66.1971 206.942 66.6793 208.864 66.6201 211.379 66.6201 213.422 65.8676 214.992 64.3626 216.562 62.8577 217.348 60.5762 217.348 57.5182L217.348 52.1581C216.149 53.8445 214.568 55.2237 212.735 56.1833 210.674 57.2789 208.369 57.834 206.035 57.7965 203.232 57.8223 200.481 57.0481 198.103 55.5648 195.666 54.0351 193.704 51.858 192.433 49.277 191.008 46.3795 190.301 43.1817 190.372 39.9535 190.305 36.757 191.012 33.5917 192.433 30.7279 193.695 28.1798 195.647 26.037 198.067 24.5432 200.466 23.0892 203.225 22.3374 206.03 22.3733 208.359 22.3246 210.666 22.8428 212.75 23.8834ZM216.095 34.6604C215.326 33.2143 214.168 32.0126 212.75 31.1918 211.374 30.3934 209.811 29.9753 208.22 29.9806 204.967 29.956 201.97 31.7443 200.448 34.6191 199.569 36.2642 199.132 38.1095 199.18 39.9741 199.145 41.8462 199.583 43.6969 200.453 45.3548 201.216 46.8412 202.373 48.0892 203.798 48.9626 205.132 49.773 206.664 50.201 208.225 50.1996 209.817 50.1963 211.378 49.7694 212.75 48.9626 214.168 48.1418 215.326 46.9401 216.095 45.494 216.96 43.8204 217.385 41.9549 217.332 40.072 217.384 38.1926 216.958 36.3308 216.095 34.6604Z" fill="#0075C1" transform="matrix(1 0 0 1.00303 -121.847 0)"/><path d="M235.139 17.3792C234.147 16.445 233.596 15.1341 233.624 13.7714 233.597 12.4089 234.148 11.0985 235.139 10.1636 237.311 8.22663 240.59 8.22663 242.762 10.1636 243.753 11.0985 244.304 12.4089 244.277 13.7714 244.305 15.1341 243.754 16.445 242.762 17.3792 240.59 19.3161 237.311 19.3161 235.139 17.3792ZM243.226 22.9197 243.226 57.2399 234.552 57.2399 234.552 22.9197Z" fill="#0075C1" transform="matrix(1 0 0 1.00303 -121.847 0)"/><path d="M261.868 30.0424 261.868 46.6433C261.868 47.803 262.151 48.6379 262.708 49.1533 263.264 49.6687 264.202 49.9264 265.527 49.9264L269.552 49.9264 269.552 57.2399 264.099 57.2399C256.791 57.2399 253.137 53.6871 253.137 46.5815L253.137 30.0424 249.05 30.0424 249.05 22.9197 253.137 22.9197 253.137 14.4311 261.868 14.4311 261.868 22.9197 269.552 22.9197 269.552 30.0424Z" fill="#0075C1" transform="matrix(1 0 0 1.00303 -121.847 0)"/><path d="M275.649 30.7279C276.913 28.1794 278.867 26.0367 281.288 24.5432 283.685 23.0899 286.442 22.3381 289.245 22.3733 291.573 22.3223 293.876 22.8538 295.946 23.9195 297.765 24.8558 299.35 26.1892 300.584 27.8211L300.584 22.9248 309.315 22.9248 309.315 57.245 300.584 57.245 300.584 52.2251C299.381 53.9098 297.79 55.2799 295.946 56.2194 293.851 57.3065 291.517 57.8505 289.158 57.8017 286.366 57.8295 283.626 57.0549 281.262 55.57 278.84 54.0323 276.889 51.8566 275.623 49.2822 274.201 46.3838 273.494 43.1866 273.562 39.9586 273.504 36.7585 274.22 33.5919 275.649 30.7279ZM299.357 34.6604C298.589 33.2143 297.43 32.0126 296.013 31.1918 294.638 30.3942 293.076 29.9763 291.487 29.9806 288.234 29.956 285.238 31.7443 283.715 34.6191 282.836 36.2572 282.396 38.0949 282.437 39.9535 282.397 41.8321 282.833 43.6902 283.705 45.3548 284.474 46.8456 285.64 48.0944 287.076 48.9626 288.41 49.7735 289.941 50.2015 291.503 50.1996 293.086 50.1918 294.638 49.765 296.002 48.9626 297.419 48.1418 298.578 46.9401 299.347 45.494 300.211 43.8204 300.637 41.9549 300.584 40.072 300.636 38.1926 300.21 36.3308 299.347 34.6604Z" fill="#0075C1" transform="matrix(1 0 0 1.00303 -121.847 0)"/><path d="M326.478 11.4006 326.478 57.2399 317.803 57.2399 317.803 11.4006Z" fill="#0075C1" transform="matrix(1 0 0 1.00303 -121.847 0)"/><path d="M381.419 42.6799 356.329 42.6799C356.535 45.1607 357.394 47.102 358.906 48.5039 360.441 49.9111 362.463 50.6669 364.545 50.6119 367.768 50.6119 370.059 49.2272 371.42 46.4578L380.775 46.4578C379.822 49.7269 377.83 52.5965 375.1 54.632 372.293 56.7588 368.845 57.8223 364.756 57.8223 361.652 57.8731 358.588 57.1146 355.865 55.6215 353.265 54.1792 351.135 52.0175 349.732 49.3955 348.227 46.5389 347.471 43.3468 347.537 40.1184 347.466 36.8701 348.21 33.6557 349.701 30.7691 351.078 28.1593 353.189 26.0094 355.773 24.5844 361.336 21.713 367.94 21.69 373.523 24.5225 376.064 25.888 378.151 27.9659 379.527 30.5011 380.991 33.2302 381.728 36.2903 381.666 39.3866 381.673 40.4892 381.59 41.5906 381.419 42.6799ZM372.683 36.856C372.72 34.8001 371.835 32.8355 370.271 31.501 368.662 30.1462 366.611 29.4291 364.509 29.4858 362.519 29.4275 360.582 30.1255 359.087 31.4392 357.561 32.8579 356.603 34.7831 356.391 36.856Z" fill="#0075C1" transform="matrix(1 0 0 1.00303 -121.847 0)"/><path d="M406.936 57.2399 399.875 46.5815 393.618 57.2399 384.341 57.2399 395.551 40.0153 384.212 22.9197 394.005 22.9197 400.978 33.5007 407.297 22.9093 416.574 22.9093 405.328 40.0153 416.723 57.2399Z" fill="#0075C1" transform="matrix(1 0 0 1.00303 -121.847 0)"/><path d="M434.721 23.9453C436.787 22.865 439.09 22.321 441.421 22.363 444.24 22.3191 447.014 23.0711 449.425 24.5328 451.845 26.0283 453.798 28.1706 455.064 30.7176 456.493 33.5969 457.201 36.7809 457.125 39.9947 457.193 43.2227 456.486 46.4199 455.064 49.3182 453.792 51.8776 451.841 54.0384 449.425 55.5648 447.041 57.0555 444.279 57.8301 441.468 57.7965 439.154 57.8454 436.864 57.3138 434.809 56.2503 432.986 55.3022 431.389 53.9713 430.129 52.3488L430.129 73.5934 421.434 73.5934 421.434 22.9197 430.103 22.9197 430.103 27.8778C431.315 26.2248 432.896 24.8781 434.721 23.9453ZM446.982 34.5985C446.209 33.1638 445.05 31.9733 443.637 31.1608 442.271 30.3801 440.722 29.973 439.148 29.9806 437.59 29.9787 436.061 30.3971 434.721 31.1918 433.308 32.0285 432.154 33.2397 431.386 34.6913 430.506 36.3471 430.067 38.2022 430.113 40.0772 430.066 41.9538 430.505 43.8108 431.386 45.4682 432.155 46.918 433.309 48.1272 434.721 48.9626 437.477 50.5784 440.893 50.5666 443.637 48.9317 445.051 48.0786 446.207 46.8586 446.982 45.4012 447.866 43.7224 448.304 41.8449 448.255 39.9483 448.301 38.085 447.862 36.2416 446.982 34.5985Z" fill="#0075C1" transform="matrix(1 0 0 1.00303 -121.847 0)"/><path d="M472.103 11.4006 472.103 57.2399 463.429 57.2399 463.429 11.4006Z" fill="#0075C1" transform="matrix(1 0 0 1.00303 -121.847 0)"/><path d="M486.967 55.5958C484.344 54.1511 482.185 51.9922 480.741 49.3698 479.196 46.5255 478.418 43.3285 478.483 40.0927 478.42 36.8493 479.22 33.6473 480.803 30.8155 482.29 28.1769 484.491 26.0104 487.152 24.5638 492.782 21.6295 499.489 21.6295 505.119 24.5638 507.776 26.0048 509.976 28.1617 511.469 30.7898 513.051 33.6216 513.852 36.8235 513.788 40.0669 513.852 43.3182 513.029 46.5255 511.407 49.344 509.873 51.9725 507.644 54.1269 504.964 55.57 502.174 57.059 499.051 57.8162 495.888 57.7707 492.777 57.8275 489.703 57.0782 486.967 55.5958ZM500.315 49.0915C501.734 48.296 502.886 47.1003 503.629 45.6538 504.502 43.9276 504.929 42.0105 504.872 40.0772 504.872 36.8199 504.013 34.3116 502.295 32.5524 500.661 30.8318 498.379 29.8763 496.007 29.9187 493.65 29.8666 491.384 30.8251 489.781 32.5524 488.111 34.3082 487.274 36.8165 487.271 40.0772 487.267 43.3379 488.083 45.8479 489.719 47.6071 491.299 49.3424 493.558 50.3023 495.904 50.2356 497.448 50.238 498.967 49.844 500.315 49.0915Z" fill="#0075C1" transform="matrix(1 0 0 1.00303 -121.847 0)"/><path d="M533.208 23.9762C535.094 22.9173 537.23 22.3834 539.393 22.43L539.393 31.5319 537.099 31.5319C534.375 31.5319 532.313 32.171 530.914 33.4492 529.516 34.7274 528.829 36.9608 528.853 40.1493L528.853 57.2502 520.179 57.2502 520.179 22.9197 528.853 22.9197 528.853 28.2489C529.916 26.4765 531.416 25.0057 533.208 23.9762Z" fill="#0075C1" transform="matrix(1 0 0 1.00303 -121.847 0)"/><path d="M576.847 42.6799 551.757 42.6799C551.963 45.1607 552.822 47.102 554.334 48.5039 555.869 49.9111 557.891 50.6669 559.973 50.6119 563.195 50.6119 565.487 49.2272 566.848 46.4578L576.213 46.4578C575.261 49.7262 573.271 52.5957 570.543 54.632 567.736 56.7588 564.288 57.8223 560.199 57.8223 557.095 57.8731 554.031 57.1146 551.309 55.6215 548.708 54.1792 546.579 52.0175 545.176 49.3955 543.67 46.5389 542.915 43.3468 542.98 40.1184 542.909 36.8701 543.653 33.6557 545.145 30.7691 546.522 28.1593 548.632 26.0094 551.216 24.5844 556.777 21.713 563.38 21.69 568.961 24.5225 571.505 25.8862 573.594 27.9645 574.971 30.5011 576.435 33.2302 577.171 36.2903 577.109 39.3866 577.111 40.4896 577.023 41.591 576.847 42.6799ZM568.085 36.856C568.122 34.799 567.235 32.8336 565.668 31.501 564.061 30.1452 562.012 29.4279 559.911 29.4858 557.93 29.433 556.002 30.1307 554.515 31.4392 552.989 32.8579 552.031 34.7831 551.819 36.856Z" fill="#0075C1" transform="matrix(1 0 0 1.00303 -121.847 0)"/><path d="M596.452 23.9762C598.339 22.9171 600.474 22.3831 602.637 22.43L602.637 31.5319 600.349 31.5319C597.624 31.5319 595.562 32.171 594.164 33.4492 592.766 34.7274 592.078 36.9608 592.102 40.1493L592.102 57.2502 583.428 57.2502 583.428 22.9197 592.097 22.9197 592.097 28.2489C593.163 26.4781 594.661 25.0077 596.452 23.9762Z" fill="#0075C1" transform="matrix(1 0 0 1.00303 -121.847 0)"/></g></svg>